<?xml version="1.0" standalone="no"?>
<!DOCTYPE svg PUBLIC "-//W3C//DTD SVG 20010904//EN"
 "http://www.w3.org/TR/2001/REC-SVG-20010904/DTD/svg10.dtd">
<svg version="1.0" xmlns="http://www.w3.org/2000/svg"
 width="512.000000pt" height="512.000000pt" viewBox="0 0 512.000000 512.000000"
 preserveAspectRatio="xMidYMid meet">
<metadata>
Created by potrace 1.11, written by Peter Selinger 2001-2013
</metadata>
<g transform="translate(0.000000,512.000000) scale(0.100000,-0.100000)"
fill="#000000" stroke="none">
<path d="M1590 4591 l0 -90 -47 -6 c-276 -36 -513 -145 -707 -326 -212 -198
-353 -472 -383 -745 l-8 -69 -93 -3 -92 -3 0 -84 0 -84 93 -3 92 -3 3 -35 c21
-266 176 -580 377 -768 183 -172 451 -302 673 -327 98 -11 92 -5 92 -106 l0
-90 88 3 87 3 5 90 5 90 35 3 c113 9 306 65 415 119 162 81 335 228 447 378
114 153 202 368 229 560 l12 85 89 0 88 0 0 85 0 85 -88 0 -89 0 -12 85 c-18
132 -55 249 -121 380 -66 133 -132 226 -230 325 -180 179 -423 305 -670 345
-52 8 -98 15 -102 15 -4 0 -9 39 -10 88 l-3 87 -87 3 -88 3 0 -90z m0 -535 l0
-264 -68 -21 c-163 -49 -295 -181 -348 -346 l-22 -70 -264 0 -263 0 3 45 c5
69 48 222 86 304 142 309 427 535 756 601 36 7 77 14 93 14 l27 1 0 -264z
m378 228 c352 -102 624 -374 726 -727 14 -47 28 -112 32 -146 l7 -61 -266 0
-265 0 -12 48 c-19 76 -81 183 -140 242 -60 59 -156 116 -229 135 l-46 11 -3
268 -2 268 57 -7 c32 -4 95 -18 141 -31z m-144 -697 c70 -32 140 -103 174
-175 23 -49 27 -70 27 -147 0 -78 -4 -97 -28 -147 -72 -146 -233 -229 -384
-198 -111 23 -203 91 -248 184 -101 206 -4 428 220 503 60 20 173 10 239 -20z
m-655 -467 c57 -179 182 -304 361 -361 l55 -17 3 -267 2 -266 -47 6 c-364 49
-678 281 -830 614 -35 76 -74 213 -87 304 l-7 47 266 -2 267 -3 17 -55z m1557
-1 c-9 -77 -48 -211 -85 -294 -64 -141 -193 -302 -324 -402 -74 -57 -205 -127
-297 -158 -61 -21 -211 -55 -241 -55 -5 0 -9 118 -9 269 l0 268 38 7 c64 10
161 65 232 132 71 67 116 140 146 237 l18 57 264 0 265 0 -7 -61z"/>
<path d="M2803 4144 c-7 -3 10 -37 45 -89 l57 -85 65 0 c36 0 70 -4 75 -8 6
-4 10 -41 10 -82 0 -90 24 -138 103 -212 128 -120 319 -159 427 -88 17 11 33
20 36 20 10 0 57 -118 74 -185 27 -109 23 -125 -47 -191 -134 -123 -337 -229
-518 -269 l-76 -16 -32 -102 c-34 -109 -105 -257 -165 -347 l-36 -55 -1 -754
c0 -415 -1 -755 -3 -756 -6 -5 -245 92 -345 140 -297 143 -510 339 -608 560
l-24 55 -135 0 -136 0 -82 -62 c-140 -105 -128 -85 -217 -353 -72 -217 -79
-245 -69 -274 20 -58 95 -76 141 -34 10 9 50 114 90 235 l73 219 92 70 c51 38
96 69 101 69 4 0 22 -28 39 -63 73 -149 235 -322 412 -441 53 -36 166 -98 251
-140 153 -73 471 -196 509 -196 27 0 272 87 406 143 379 161 632 368 776 634
20 36 39 61 46 58 7 -2 51 -32 97 -67 l85 -63 71 -215 c59 -177 77 -220 102
-243 25 -24 36 -28 62 -23 39 7 76 49 76 84 0 22 -124 408 -155 485 -4 10 -70
66 -146 123 -77 58 -139 106 -139 107 0 1 9 45 20 97 24 112 36 376 23 493 -7
57 -6 77 3 77 25 0 259 -51 265 -58 3 -4 53 -69 109 -145 103 -138 124 -156
175 -148 36 5 65 41 65 82 0 33 -16 59 -118 196 -65 87 -126 164 -136 172 -9
8 -103 31 -208 52 -105 22 -193 41 -195 43 -2 2 -14 43 -28 92 -21 79 -53 172
-112 326 l-18 48 148 148 148 148 42 251 c40 243 41 251 24 277 -25 37 -61 49
-104 35 -47 -15 -54 -36 -93 -275 l-33 -202 -112 -112 -113 -113 -25 39 c-16
25 -28 61 -33 99 -32 280 -204 535 -454 673 -79 44 -224 90 -337 107 -92 14
-264 19 -290 9z m550 -276 c76 -41 140 -100 135 -125 -3 -15 -13 -18 -54 -17
-27 1 -66 9 -85 19 -72 36 -146 128 -117 146 25 16 60 9 121 -23z m475 -805
c67 -114 145 -319 183 -483 33 -141 49 -277 49 -430 0 -496 -187 -807 -630
-1048 -81 -44 -242 -114 -357 -155 l-73 -27 0 919 0 918 85 12 c229 32 455
135 645 294 36 30 66 54 66 53 1 0 16 -24 32 -53z"/>
</g>
</svg>
